<mxfile host="app.diagrams.net" modified="2024-02-23T03:10:04.117Z" agent="Mozilla/5.0 (Windows NT 10.0; Win64; x64) AppleWebKit/537.36 (KHTML, like Gecko) Chrome/121.0.0.0 Safari/537.36" etag="09LcAJr0KOF1KAg129lP" version="23.1.5" type="device">
  <diagram id="R2lEEEUBdFMjLlhIrx00" name="Page-1">
    <mxGraphModel dx="989" dy="514" grid="1" gridSize="10" guides="1" tooltips="1" connect="1" arrows="1" fold="1" page="1" pageScale="1" pageWidth="850" pageHeight="1100" math="0" shadow="0" extFonts="Permanent Marker^https://fonts.googleapis.com/css?family=Permanent+Marker">
      <root>
        <mxCell id="0" />
        <mxCell id="1" parent="0" />
        <mxCell id="NQpFoVwnLHCD1mr3ZYyZ-2" style="edgeStyle=orthogonalEdgeStyle;rounded=0;orthogonalLoop=1;jettySize=auto;html=1;" parent="1" source="NQpFoVwnLHCD1mr3ZYyZ-1" edge="1">
          <mxGeometry relative="1" as="geometry">
            <mxPoint x="460" y="270" as="targetPoint" />
          </mxGeometry>
        </mxCell>
        <mxCell id="NQpFoVwnLHCD1mr3ZYyZ-3" value="Send recorded data" style="edgeLabel;html=1;align=center;verticalAlign=middle;resizable=0;points=[];" parent="NQpFoVwnLHCD1mr3ZYyZ-2" vertex="1" connectable="0">
          <mxGeometry x="0.029" y="-5" relative="1" as="geometry">
            <mxPoint x="-6" y="-5" as="offset" />
          </mxGeometry>
        </mxCell>
        <mxCell id="NQpFoVwnLHCD1mr3ZYyZ-1" value="Plant" style="rounded=1;whiteSpace=wrap;html=1;" parent="1" vertex="1">
          <mxGeometry x="170" y="235" width="100" height="70" as="geometry" />
        </mxCell>
        <mxCell id="NQpFoVwnLHCD1mr3ZYyZ-6" value="Model" style="rounded=1;whiteSpace=wrap;html=1;" parent="1" vertex="1">
          <mxGeometry x="460" y="232.5" width="120" height="75" as="geometry" />
        </mxCell>
        <mxCell id="Saa3QnOTG5s7zxWx84Cj-6" style="edgeStyle=orthogonalEdgeStyle;rounded=0;orthogonalLoop=1;jettySize=auto;html=1;entryX=0.5;entryY=1;entryDx=0;entryDy=0;exitX=0.5;exitY=1;exitDx=0;exitDy=0;" parent="1" source="NQpFoVwnLHCD1mr3ZYyZ-6" target="NQpFoVwnLHCD1mr3ZYyZ-1" edge="1">
          <mxGeometry relative="1" as="geometry">
            <mxPoint x="460" y="425.0344827586207" as="sourcePoint" />
          </mxGeometry>
        </mxCell>
        <mxCell id="Saa3QnOTG5s7zxWx84Cj-7" value="Predict values from plant state S at next state S&#39;" style="edgeLabel;html=1;align=center;verticalAlign=middle;resizable=0;points=[];" parent="Saa3QnOTG5s7zxWx84Cj-6" vertex="1" connectable="0">
          <mxGeometry x="-0.1626" y="3" relative="1" as="geometry">
            <mxPoint x="-9" y="-3" as="offset" />
          </mxGeometry>
        </mxCell>
        <mxCell id="Saa3QnOTG5s7zxWx84Cj-8" style="edgeStyle=orthogonalEdgeStyle;rounded=0;orthogonalLoop=1;jettySize=auto;html=1;exitX=0.75;exitY=1;exitDx=0;exitDy=0;entryX=1;entryY=0.5;entryDx=0;entryDy=0;" parent="1" source="NQpFoVwnLHCD1mr3ZYyZ-6" target="NQpFoVwnLHCD1mr3ZYyZ-6" edge="1">
          <mxGeometry relative="1" as="geometry" />
        </mxCell>
        <mxCell id="Saa3QnOTG5s7zxWx84Cj-10" value="Use recorded data to build/test model" style="edgeLabel;html=1;align=center;verticalAlign=middle;resizable=0;points=[];" parent="Saa3QnOTG5s7zxWx84Cj-8" vertex="1" connectable="0">
          <mxGeometry x="0.3499" relative="1" as="geometry">
            <mxPoint x="80" as="offset" />
          </mxGeometry>
        </mxCell>
        <mxCell id="q_IPMps0T10aTlea4-SQ-1" value="" style="shape=image;verticalLabelPosition=bottom;labelBackgroundColor=default;verticalAlign=top;aspect=fixed;imageAspect=0;image=data:image/png,iVBORw0KGgoAAAANSUhEUgAAAc0AAAEKCAYAAABwqA4RAAAAAXNSR0IArs4c6QAAAARnQU1BAACxjwv8YQUAAAAJcEhZcwAADsMAAA7DAcdvqGQAAGd5SURBVHhe7Z0HgF5Vmf6f6X0mU9J7SAdC7yV0BBQBV7C7gKhrQVFWd1dkFd39uyKgIkhTgiBIL6ElQEIgkEAgvZDeJ8n03sv//M733fAxziTflCQzyfuDm/nuveee289z3vec896YVocMwzAMw9grseG/hmEYhmHsBRNNwzAMw4gSE03DMAzDiBITTcMwDMOIEhNNwzAMw4gSE03DMAzDiBITTcMwDMOIEhNNwzAMw4gSE03DMAzDiBITTcMwDMOIEhNNwzAMw4gSE03DMAzDiBITTcMwDMOIEhNNwzAMw4gSE03DMAzDiBITTcMwDMOIEhNNwzAMw4gSE03DMAzDiBITTcMwDMOIEhNNwzAMw4gSE03DMAzDiBITTcMwDMOIEhNNwzAMw4gSE03DMAzDiBITTcMwDMOIEhNNwzAMw4gSE03DMAzDiBITTcMwDMOIEhNNwzAMw4gSE03DMAzDiBITTcMwDMOIEhNNwzAMw4gSE03DMAzDiBITTcMwDMOIEhNNwzAMw4gSE03DMAzDiBITTcMwDMOIEhNNwzAMw4iSmFZH+Ldh7DeaW1pVXdekuvoWNbnfsqfQ6GFiYqS42BglJcQqNTle8XExfplhdAcTTWO/0NTcqsqaJlVUN6qqrlkNjS2+EKNQi4l1D2I4nWH0HDGieGt2zx4Vs4S4WKUlxykjNV7pbkqMjzURNTqNiaaxT2lxj9fO4nptL6pVVlqCkhPj3NJWxcbGOgsgxglnrPsdSmsYPQ1OjKamVjU0tXjx5D8qbDWu4pablaiBOUleTA0jWkw0jX0CTxXu1y27alXf2KycjERlpScoJSlut4VpGPsTmgTweNTVN6u8pkklFQ1KcNbmkNxkV6GLd5U3eyaNvWOiaewT8ovqVFTeoNTkOG9h5rlavbnCjN4CAlpW1ahyN1XUUKlL0GAnngnx9pAae8ZE0+hRcMduK6zTDieawwakeLGkI4Zh9EZw1ZZWNiq/uE65mYlOOJO89WkYHWGiafQoWwtqVVzRoP79kjQ4J8lcXkafoKC0XjtL6pWeEqdh/VOUaBU9owPsyTB6jKLyem1zojk0L9nX2E0wjb4CHpFh/ZO9y7akssG7bw2jPUw0jR6hqrZJ67fXaEheiu+VGNvJBkzcutWNzf5vdyGH2qYWFdY0hhZ0kebwMXUVjoOhDvXNLaEF7cA+yuubVOam7sA+atw5twfH0djcqgY37Y1Gd7wVDc3++nUG9l3lrlVJXaNqwteMa7e5os6f3/4EvdtV3bDH694WKng5mYkalJOs7UV17nlu9p3ZDKMtJppGj0AvWdqEhrraemcFE8F4cNkOTVu+U8+uLfLLaDUIBJR/+ck8vykM15XW+jSRy4PfTEVOMBcVVLJ5aD0JwgRpgD9+4rdf5xd7Suua9O72chXVNmp9mdtfeDlpgt9sG8z7/bi/CA+CvaOqQdur6rWyuGZ3+gDmmeqc2Gxwea8p+TjNP6V1CyLXBfPsZ2tlnTaW12q12/7DnRV+WeT58Bvh3lRR6wWMZcFxQtu8Kxpc5ccdT6E7Z78svJI/uyf3D38RYdLmu3Nk3wt3VWpFUbV21TS4tdLSwmotKazy4hnajn9D2/prxuSXh6aA3cvd9IljZXLzCPpytx/uz+7l/lfob517Pt53xxOs7wwDspOUmZqgjTuqVecqD4bRFmvTNLoNQQuWb6zUMeMyw+Mwo4fCc87WUq11Ijg2O8UXmMcMTNcyV+Di3R3TL0XJcbFOAKuUEBejERlJKnOF4VwnZuePynYFY7PqXSE6OjtZW8rrXY6tyk5OUILbeH5+hU+zsbzOLYvXxJw0J9CNvsBF1sdnp/oCvsTlN8zli+AUO7HISnRpc1P971lbSjXBpZu3o0KnD81Scnyst2LIb0RmshcJjjnPFbSk51hzUhLcPqp84T7c5VvuCt8xWc4Cd9sgYFhjlW4ZhXtKfJz73eRF9oRBmT5fLLXMpDi3rzhtr6zXBieKaQlxGpiW6Na1eJFKccdBGsSyor7Z75+8D89N82Lt6y1uinc/hqYneSuwtsnl684N8Rzk8mLfiHqO2+eA1ER//GtKa7zVeOyADA12aUpdhYZ9IabcK0SeSgTHmeqWz3PXuF+SO2a3PMsdD5bz2H6p/no+/lGBuxutOmNYP2/pct7cv9iYWH8OGe5ZSXXnxT3BKDzM3WvScE+yXJ4UTdXufHPd/eT8uBY17hwSYmM1Z1uZjhmQroHuuKl0cQ8m5KT6fHe67efnl+srkwf5PDsLYrl0fYVGDkpVf7wm1sxgRBD3C0f4t2F0iQUflfpOP7hlYzrrlnWF6htOmM4Zma1jB2ZogCuoFzuBRAAYy/lRca0XB4RuUFqSF8DB7i9icUReut51hePorGRfcG5y6/KcYM3aUuYLy80ViKh8ITrOFeSZriCmcMYCQThqm7DA6tTQ0qL+rvCd74SRwpd1I5zINbrlK4urNcSJDnkjgMvCIrnFFeBxrvDmOEa7fZG3F7TqemeBhUIDuuyV7ZZjtXGeO6obtc1ZhqtdBWGFyxchoXKAyJc6seDSIZj5TpTzUhK9mC5x6xEihB2BRviKXVpcqFQ0EBAs73QnQMW1Tjw4X7d9rVvGNcEji6AlugqH++NZ5fbNshInVojMLifYiCeiCFh3/Z1IUYlY5yxJ9o9lv8NdxwKXN8K1w/2tcyeIyCF+LCNghduNE+GQyH3krg2/OQ+Ol2PgPLi+bMe95rqWuYrPNrd/zoNzQkgR9URXAaFywTWtx6p1lYd+SQl+/VJnwXJfFu6q8sfrnxn3N99VGNLdeo7viLw0v//OQsANLgXRqzLTEvy4YsMIMPes0S2wMstd4TIot/Nu2QC2o2BtcYV0tSskseQotAe7QnGnKzDplEHhN9JZdrSPYRUhNKRhl1iouAqTXOE2LCNZW52gUYBiIGARIQaLXSGLRYoVs82tx/JCfBC4QS6/tIRYbXMimxS2FHkxED4KbSy+fslM8Spw22Ntki9WLb+9NemOa3NlrbfIsDBzXR5YcOTnDsX//XBXpRcSRIjCHWsKcSGfJJcP5/CBS4OgpLrjYd9YYViYWNlbnNhg6aW5tJTjiDECgmBjWXMM5M1xcn3IPxNBc+fKdpxrgzsnrusQl2eJ2x51wPpkHdcLqzTDzXMnEU3yROhK3N8qdzyAdYfAIeApbv/si2tc6/YTkOquGcfFNWB77tNQd53YjvND2LjuXC8El2N1q/w5D3DXhPXcJ9KyfZzLgPxWYwm7/XCvsb4DQUWAeU44/9A5xPnz6Sp5We6eVjf5ISmGEYmJptEtdpXWa8zgdCUndu1RinXF85T+6Zq5qVR/XrJdb20r06D0RM3YWKJX3YR7lgIX0aEQJD3Qljd3W7kS3cJ4NyGqK50gvbC+SOOciCIiWCC4ErHmPiqu8dYeojd7a9luKxTBJu9EZyWluXNY4NvCGndHLGLfbrUT8kZ3bG5/buat7eU+Hwpm9oM1t9XlN9tZuBvK6vw2uF4XOSsIy8kX8E5EEBXEdFJOqre6EHIKefJEuJLiY7yY4o7EzYv4YUnOdNcB62xSbpoX5Pd2VDoLud67Yrnqa915c37uMLw7lmvCiAn++opM6FS8+3VxQaV3qSK47BsRL6ip9/vE2nx1U7HbV61Pz/4RsbfdPdnsLEJAvMmXLAk/R8UCqw9BZ/+RhHfrKhXJ/vinry/21jcCifWG25PfWPsbymt8RcEt8vf9bXet8SK87a414k676EZn9dJu6gXbiRleALZHSHkeqMgg8jM2lfiKE/elqzC2ONHdD3rSEkXIMAKsTdPoFgvXlGvssDQfBDsoJDsL7VYUhpWNTc4CStKIzJDbjQL/yLw0X1BTeON6xb1JW+KCnZVetBAXXLGICR1/cHniLsXCyXcFJ4Uzgoa1Nik31bcdLnOFfJoTKSwdLFJcqLiA6dRCe2BOSrwXJCwYOtlg4SIuCATryA+RRpyxgoY4kccliqsW64f0gIBSkGPtYSXhikQ0afsjLW2dHCeWG3lT0CPaV00c4K0lLD3OF9co4pDl0uKGLHKCfczADI0NnzeCxbXCOiN/QHzc5l78G53IUDHARYplh2BiHSOwWHNcR9ovcefudNeHttfRWSne5ctxYu2zPS5sBBPrssxbwyErFnc3x881Jh3XkutDWyzztJ1ybRE07hXHxrOCx4B9ko7taWOmwrLNCRVeBCoeiGWOO3esWaxK0k3KSfP3BTgGKgMsP9w9K9wHrFMqV7SNc926ClGtthTU6qjDMn34R8MAE02jW7y/qlRHjc3qkag/FPIUqMBDyZMZzLeFtBFG1G6wLr11FSaUzyeXRe4nEtIG2werWcZvjoVOLawL/f5kHsyzPDimtvNtCdYHeWD10dGFdskj+6d56zmAdBC0JSJcw50wBymC9RGnGDWR24Z/fuJ4g2UB7e0imv37NG59e0m45uCvrfvLrM8rnG+wHeloM9+9KpzOPwsk4x8Wh7cL5rtKvavMzVlcpJMmZfu4yYYB3S/pjEMaCqie6l0YmQ0/95Qt69pbHSmOEMrnk8s6ypfFtJ1Frg5+k0WQT+i3/7kbZiOPqe18W4L1AeyXji1HtBFMYH9MWFWjnFjSNhiZIljfFSK35U/bbIJl7a0LiGb/Pk34d1u4rruvrZ8P/Q3y5TeQJvgdrAefPljhCLbrLlQEcUE3NoWG8RgGmGga3SKo5RvRQ/lLpxraRSNBLGkjZR3ti3TeiYTrTBoEFqsTd+fewCVLxypcnV0Btyfuzgq3L44HlzHwb507BjoQHcykpsS5a9DiRNNU0whhoml0D0Szj6km5T5tgRT49NplKAedSxhiQhsdQsFYUNoPGZqBWxDBYDllJ71cSQ/M044a2j70sWPS0pOT7VgepA3m2S8dlGgnJa1Luhu2Z/gFnWvK3bHtzs9tSzp+M9FeSkci8vL7dsfAPvntj9PlxfFsrajTKrcfxnIG+ZOG/IK8+ev+372O7dieeUSXfTHEBiGnbZJgDEW1DX4Z7aOfzKfVb49IM08+wfVys30OPlTtHgt/HoYB1qZpdIt5y0t04uTs3b1NezsU6HQiWeeEYFBqgh82MX9HpaYOy3IFf6u34Bi0jytw1tYynT8y23fuYRs6tOAeXVpU5Tv7MK4UqxCBozPMyKxkP6yl0AlKdlKC7xjDOvKjcxKixnzgXqW37fGDMnynG4bN0ElpaWGlVpfU+rGj547IDoWmc8KE65ZOPvTGzU2J9x1eEK1jBmRohxOzERnJanWZbnLHOSg1yXek2VJZ5ysEBCe4aEyuMtx5INSIX3+XFxZrgdsngQgY5rGlol4F7tjp7cr5+TGlLj0Vh4k5qb5TD9vTmejoAem+wsAyxJE8OUY6PgVDRYa5eToPcaw8HnTE6sq4yQPJ4nXl/uMDg3KS+swzbuxbzNI0Diko4DeX12tdaY0XxrSEeG9G+LGJrkzEIlvqhIYOJ4gc6eduL/MdcBjisMwJ5oc7Q7102Q6RpfcnfxHMD3ZW7O5Ji+CRBwEZGB6z1llo2Jz01kWw6LUKDNrHYmToxRoniqExoKEgC1i726safHAHAg0ghMCQC9yuDAWh9yhWKT2Q6aFLNCKG7tATmLyCNlKsRPJgeAvuVoSNcabsh6ANRW6e80X0V5VUe0Fl/ChpgAoHMIQGsWQeazdUoYj1fxe5YyA/hJbzJYweUYY4vr5L6LwNA0w0jUOKUIebRG9JITaMCSXAABYQ8wyzYKgJQ0GYGLLgrTFnNU3OTfPRiOisw1AJhBIdYegGUYkYSoJQkje9WxEm5tknkXcYPsFQD9YxJpHhF6RFMBHXKicsyBvLGUqDFYs4M7SFYTZYh1iwWKSEtyMCEW2g5MlwE7bHShzljgXxQ8gI34eFDAyPYTn5MWyE5ezLHZ4/H8ZqEoouxe27tLbJiy3nxRAUwKVLyDwsU0INcu70+EVSyAfIhyE248nXzdPTlzw4j6qGg7v90zg0MNE0Diloc2N8JCK2o7reGxF0qHlvR4UfJI9Fh2ggGIgBlhkuWawlgsDTKQQRZTA9fTkx4hAgrDF6tyIq3sp0AoZIElgBlydjTHGPvptfoXn55d7KRdTYDwKJ6480tP8xqJ/j9OMeXRpcrHS6QbSw5nDLsh1RjEJTKOwcofcIzI5QD3WVAdpNOS8sYF50xn6SL8ED6IREdCRCGCJuCC/nwLEQbIHxqJzDu9srvJWNODMR8IB4v5w/1we3Lcf8+uZSf05UCDgezo0JaxSLmOuNK9ww+jrWpml0i77YpokLM9QGl+gtyBXFNd5aRJQQHNr3hqUne7crVhjWJp1fEAOsT0QLq4/Yt3RwIbZtlrOuCB2HaxKRIR2u0XWldT76D+nTXBraBLHosDCxVHELI9qIXJWzHHEbY0WSnoADCDTiTtxdLLgN7tgRV8QNlyeBERBQ2jsRMs6N/ea5fRQ40aRDE4KKtYfLmfNALNkOAaUjD1Ysx+u0zwsjnXq4n7Slci6cP8dH/12uByIYBDlg36TDJU0+uJyxnKlA+B637jcubwJUYI1SqehLhNo0Q58MszZNA0w0jW7R10QTeOARDNymwXwkwZkEy5nHFUlyfkcubw//RnWQdm/bQnjz3QTbeNxM+LD/KR1E5h/5O6DtsvbyCGhve+go347y4VoHQQn6GiaaRlvMPWscclD0BYIJ/IqcAiLnKS+D35HL2yMQV/87PAW0nW+PtuuDbfwUsbJtOgjSQeTvgLbL2q6PpL3tob3le8oHt+2e1htGX8JE0zAMwzCixETTMAzDMKLERNMwDMMwosRE0zAMwzCixETTMAzDMKLERNMwDMMwosRE0zAMwzCixETTMAzDMKLERNMwDMMwosRE0zAMwzCixGLPGt2iL8aePRipr6/3U1JSkp+MniGa2LMtLS0qKytTQ0ODcnJylJhIcPvoqKmpUVNTkzIzM8NLOgfFd3l5uVJTUzu132hpam7RjrI6bSqsVkVto5qJ6t/HIPRkYnys8jKSNKp/mnLd3+5goml0CxPNnodCdOvWrSosLNTEiRP3WqBSaL/33nt6++23dfrpp+vUU08NrzG6y95Es7i4WM8884xWrlzpRXPQoEG6/PLL/X2Lj2//iy47d+706blX06dP15YtW/T973+/w/R7orGxUbfccosuvfRSnXDCCeGl3Ycg+8WVDZq7ulDvryvW1uIaVSKafLmgjxGIZnZaksYOStcp4/J0zOhsZaYkhFN0jrhfOMK/DaPTbCuo1dD+KT4otxEC0SsqKtLmzZt9oYYVwFc+qqur/TKsEqyChIQEVVVV+bR1dXXasWOH356C+Mknn9TcuXM1atQonxYBraiocDX9ZsXGxio/P9+nJ18sy1mzZumRRx7RyJEjdcwxx/h8jO6zs6ReaclxSk+J/6dnHCvx/vvv19///nd/j7mfs2fP9iJ49NFH+8pMaWmpv+/btm1Tenq6v89//vOf9frrr+vYY4/Vhx9+qPXr1+vss8/295Rnh+1JFxcXp3Xr1nlrMi0tzf+lMsUzxLPQr18/n/7b3/62jjrqKE2ZMiV8ZN2jxQnj9tJaPTF/i55+b6s+3FiiXeV1Kqtp9NZmX5vK3XGXVDUo353T2p2VvgKQEBergVnJSu3Cp+pMNI1uYaL5SRDJJUuW+IJx5syZWrVqlbKysrzQPfHEE3r00Uf1zjvv+AJy8ODBfj1p33//fc2YMcMXriUlJV4AV6xY4QtLRHXatGlatmyZL4i3b9+uv/zlL14oN2zY4C1RrBcK4OOOO85EswfZk2hy7f/7v/9bY8aM0Y033qjzzjvPCx0iirWPGP7jH//QW2+9pddee80LIOt/9atf+W2zs7O9S50KEfft9ttv9x4DnoN3333X3+8XX3xRH3zwgU477TT/PNx6663eo/Dmm2/67YcPH667775b55xzTo+JZrkTmkfnbtKzC7Y5sawPLz04wFIudgKKcKY4wRwzIE0JzgrtDNYRyDB6kF27dumpp57SvHnzlJubq8rKSm3cuFFLly711iOiykQaCr41a9Z4cSUdhSfuuk2bNiklJcVPFLILFizwVie/sTIefvhhL5yIJXmQL9apsX/hXlPBwcobP368Ro8erYsuusgLIV4ARI6KEhUmKjt/+tOftHbtWm+RJicn+/ZP7vXy5cu99+H555/39zovL89XkhYtWqSBAwf6+03liucDS5PnB5cwgkq+PUlDU4s+3FCi6QvzVVbdGF56cEE77Xpncb6+bKdW76j0rujOYKJpGD1IQUGBt/gOP/xw/eAHP9C3vvUtTZo0yVuWuFa/853v6Otf/7q3PilUWYZL9eqrr9a5557r3a2I5YQJE/x04okn+nyxIv7t3/7NW54UoBdeeKG++c1v+oIaiyRw7Rr7D8QPQaytrfWuUyYqP/wN2idxyX73u9/VNddc49253O9hw4bpsMMO8wJLRSiSk08+2afH7co9vu666/x+Apctgsnzgegi2D0tmrgzZy7ZqeLKg8vCbAsyuaWoWks2laqmvjm0MEp6tWjygFC7wpXR1ybaMYyuwQNdVdukclfT7e1TtTvOyIoqBRztW7RlYVUgaDwPLKcgxLLABUunkaCtEyHEVUthSCHMRKFLeyf5MI9VMmLECP+XNkzEmYKUQjooRI39C+JHpWX+/Pl64403vNsU1yweACpCCCJWJ/cfCxFYx/1DaHGpI7CRYGXSVslzgZXJveVZoCwkfyxR8iDvnhZMLC7aLdfsqAgvObihrRM3bXV9U3hJdPTq3rM0di9evNi3DfQ1aNinE8fBzr7oPUu7w4KPSlVe1bmH+UCQnZGgY8f3U3xc6Pyp/eOSo/BEyJiuvPJK35vyjjvu8KKJWFIwYlHQzoWb7Y9//KNeeeUVPf744/rSl77kC9SHHnpIF198sS80sTJou6IAfvDBB32bF4UvnYQuu+wyL7C0g2J9YtUYPcOees8iZNy7v/71r/76c59ws37uc5/Ttdde612sf/jDH3x7JBUl7vudd97p7zH38POf/7wv46hY0a792c9+Vtdff72/f/379/fPET1iTznlFN+WiRuXdk+eJ7wZCDOu2+OPP973oP3yl78cPrKuwXu3fGu5fvr3xdpRVhteevBCG/V5Rw7UDy6aoGG5qeGle6dXiybtNDSi07Gir8ELgYvuYGdfiGZTc6ueenO774TR2xmal6xLTx+spISQ04bXCcF79dVXffsjlghuNtx0FHRB2yQFHYUhbZpMn/rUp7yA4rKlVyWWCG2ddPTA4sCth4BiXZCOdQg0vTTPOOMMv6+FCxf6bVlm9Ax7G3LC/abHLB14qNhwvxn+QSed2267zVdkvvrVr3pR5T6deeaZ/v7RDj106FANGDDAe9O4t4gp7nju3+9+9zv9y7/8i4YMGeJFmWcIkWa7jIwMvxzPBQJKpzAq6UcccUT4qLpGkxPNpZvL9NNHF6ugvC689ODmnCMG6oaLJ2pEnonmAcdEs+v0JdEc4kTzsxGiGYC4UahhfeBeBV41lvOX5XsiSIubLtg+EvJmPW5f0hj7hmiCGwCVGqbI+3Hvvfd67wEeA1zwkfccAWS+s/eO7Xge2raF9gS8d0u3HGKiebgTzUs6J5q9uk3TMPoqFGy4TiMFjwKSwm5vgglB2vYEE8iD/HtaMIn4UlvfrOq6Jt9e22cmd7z1jS2d7gnZU3Cv2t4Php3gpg3aJSPpamWH7faFYBrRY5bmPsIsza5zMFiafQ1KgbKqBm0vrPNDDfpcuDT3+BH1ZUB2kob1T3b3o2eEJVpL82DALM3oMNHcR5hodp1DUTR5DRmSEMSPZQwgy+gxi3WxrymtbNTyjRVat61KNfUhF3Jfg44d2ZkJOnJ0pg4bmqaUpO4L5/4QTXra0x5Kz+horE+GF9GGTdtnT/aaNtGMDnPPGkYvgKEjBCp44YUX/HASKotMCOm+hsJyy64ardlapfLqJjU2tfhlfW1iYP4uV9FatqFCxeUNfSJOKh2+6AFLWL1oKiqkYdjJr3/9a98RzNj/9OowejxQ1Kiodfc1sDLpGXewsy/C6FHWrdxUqarazg06PhBkpMZr4oiM3UNOIqGjDgJIiDyGTjEcgaAGWBM81/S4ZDgV7ZaEymPYASHTGErAM09nn8mTJ/vtKCiDoOB0KsHaIE/G/xHsANEl765YpRU1TVq9pUr5xQeHddHQ2OItw5zMxG5bh3g7OgqjB/R85f7iDcNaZCgR951e0NxfxtIy1IR7xnhOelZzv5joBctz8JOf/MTnQwB37j/3nntLRCm8bQwv4t4DyxBYnhWGF2Gd9hS8d8SYJVJOZ8cu9lVGD0jXKePzlJUa/XtjormPMNHsOgeLaDLMAGuRkGc8xxSadAjBWmAYAUNQCIDAOoSTnpYEM8Aly19Ek+EmjAUkdikCS2g1YNjCPffcs7sQJkwfARIYxtBZyqqatGlHjfu797BpiFByYpwT/tBv7nu0Bl1WWrwS4mOcVegspvCyAPIL3KndNRDZftiAFPXvl9TufekMexJNxljed999PrABoRIJPkAlh9933XWXF0zuOfeNcbqMtWTIERUfPArcOzoJMaaX+3/++efrl7/8pb/HrOPeM5wEISVsIvkTSYixvgw5YpyviWb36IpomnvWMPYRiCM9HbE0aKskUPtLL73kLRBEkIKU0HkUjliJjL0jIgyRZrAgCWSAxYFo8skpxnVSAD/77LPe8kAsKTSJe8pYTwa/dwWOMxrXIIGtRw1O1eGjMzQ0L0UDs5OU6YQQYYqc4tyEviAyGHr8xbpGyAZkJysxIZSO5cmJsb7NEEGlfTgQJ7/ebex++r8+X+bDx7I3OJsoTqlbII64VhmTeckll/hgJlSKiCu8evVqP/aWe/O3v/3N3xusUYR06tSpvt2a5VSsaZfEu8BzwFhbjAXy4x4T4J8A/Mzz3LA/48BiomkY+wgsCj4QjBVBwchf5mmLQkyDwARHHnmkd+tRaFIAB4UvkBaLlYKTuKSkwWXHMrZhQDsT7r/utH9Goy8I3KhBqRrgLDiELC053lud9FgdOzRN44ena9ywdB02JE3Z6Qnqn+3E0P2lcw6Rk/qlI44JXnBJPyg3ybtRJ45I14iBLl+XPj01zolnksa4POgFi4gO7+/SD0vTcCe6SW5/vQXc5twHYgvzhROGmHAfqOxg9RPIAJcrIoj7Hbft2LFj/RdN+Is3AdFkqAoeAlyvVC7OOussXXDBBf5ZYRvy4DmhgkQlyjiwmGi2gYc2mh5sRu/HWzqYOh3Amn3VIxIQPFx3WA8UjECbI8LHIPWXX37Zu9+wHCmAEVLccrjnsEyBtIgj+Tz33HPeUqGARVwRYbbheeX3vqaxqVVF5Q1+HGec212Mm7i+uEH7OVFEPHOcQA5wliPticOc5Zjr/vbPSlRuVoJ3zfJqJTnxzXPbjByY4i1VLFhuQ7zLFFElv5SkWC+S2RmJXlxTk+I0MMf9Te49RVZQyZkzZ453txPMgPtDJQYX6mOPPebvLW2XeA+4R0FlKLhf3D+WffTRR95yxeInPZAP6XDvkxfNVLhwA3qinIrGw7A30pLiNXXSAH3h1JG6/IRhOnlcrl92sGJtmhHwgOIG4yGmUb87WJtm9GAhBa5M6E6bZkJcjC9oGehOQU6bY3UH+WAljRiY7PfDh3e7wp7aNBFGhJPnmCDbTHxGCgsEK5Qvn2BNEHqNGKMsIz3pcNMijsQtpd2LQph1uPEI08Z62jyxPnHtYvHwVRTcgZ2F4PjbCmt9z9m9Qc9aLMxcJ4Qp7vpV1TT64TZllU2+t2pFdaNvs+RyIogsS3HpIc1ZjaHxn61eIJOdEFbVuH26RSWVjS59gn+O2EdhWb0T3qSwQMdoR3GdF85Klz6ar1KMDFvE7d2XzrCnNk2sSu4BnbJwpyOgiBpWZDAshA5aWI24VxFFXPKEymM9EYQIlUdcWipJeBywSHHfkgfxZ2k3ZT1lIMu+973v+feF5Zdffvluge0K7J+8Ke+o1HHPutKmmefu01fOGKXJQzPdvYrV+MEZ/v3bXlLrnpF4f//42HO9u698/DnTXUv+cp+By8qzlJGc4B6FVv/MeE+G2ybVLW92yQhaQT4sIy29pdH7JFfhykwhUESoF3hn6UqbZp8fpxnU3HnAeEDphcbDTKFCTYyaOw8YYkiNnYePwglXByKJ+4NCicvAeKlx48b59fR+40HCZUKhRwFHnmxHj8ggn44gaDNum7aXd19bsfs7/3krSnXipH7+ge4KXB86tXB9ufbcJ/fK6Ok5+e2O08RFiDVS19DiC1AsEvaN9UIv0CwnYoePztTSDRW+sGPA+/YiXt44J8oxrhBuUaIr5Cm8eREnjUzXR5ur3HMUqvnXuQKZl5ZCkpe6uq7ZWTehfBjSUNFGWGiHu/TUgT7PtvBs8TxSePKc8jzhpsXqwLIMOgARX5Zni7R0+KANlDYvCjPcfAgiaSlYmaftk+1Jz28qG/ymAN1bRY1nNvLLKWyLIM1bUaItu/YcpJsKwjBXQcKNSkHGddruxDbDXSuuEx156hubvYhilZKetspUJ5r5RXXeVcs1zXGVGu5jpRPrjTuqNSg7WY0uw3RX+O0sceLorEkKVVwBW3a6CofLY1dpgwbnJvv9FVd0/N4FnHFUrg4flen30x32Nk6TSg/tzJQRPLt04uId4X4hjNxvOu9Q9tAGTVlDxYfnnXvGJ99w51JO8fyznOcjKL9Iw/uBwJE3zwplDyKNJRqM04y2GI9MxzETI5lKFx/SHjJ0mFbtqNF/PLakU+M0h+Wk+KDnm4tqNGvFTn3qqMHu3YrRU/O36KzJA7wA1jgRnrV8l06dkKcxTqjqXc1q6ZZyfbC+RIP6JfsYsIjf+l1Vmr+2SIP7pfi0vHer8yu1YH2xF7jTnMDx3DGedHNhtU6f2N9vv9H9nrOywH+5pDMcksENKCR42KidUxDw8FHoIKIUWtTcEFMetkA0EcfgA8EURBQePKQ85IFIUivkN4UXBQu9HNkPeeBu40HfkzVK4GxqntREIRCb9kSt7bLI+Y5+B7S3bbTpAqJJDyxru3xTSbJG5tR791pAR3m33Zb5QDTpKEHhwjXO6z9Q765x967ik58+QpgmDEtTjNsZlgpimOlqiFnpoR6prlxxQtqoU47I0bzlpW4HIWuyurZRIwemutpzqEDHeklMiNMmV2BPHJmh5U5gfacWV6jvcgKCgCK4CGtheYMvNHEhIi5EzIkkJ93d65FNamqo3X1+/KUwozJHgRTA84YoQmRagrmTdrel7Z5bKnqIW2Q6nm+EkWcwAGs2eI4j0yK4VB6DQhUQTAphKoRYK1i4iHBdS4o+WFO5V9FEFGlf7OeuNxWaOmdNYFFwTalQIHR84BfrLrAWEETmd5XW+3RYA4hpeoqzMp1okg8uXMQNISYdQssyXMFF5fVedAmVx3ZUWqKxNE89vJ97VlLcfQvN83wERV17v9ubZ1q9vUHZaa6CkRFyIQfL20sbuayj33uaB+497CndnpYF88Hftssj53lmGMrEM8RzMHbceFXEZuuPbxaosHLvFZMARPOHF09UQUWde2+LdKoTtpKqBi3aWKobLp6g/LJaL3Jrd1TqylNGaEdZnXLTE50gxujhtzfp8GH9dMq4XC+Y5EHasyYP9EJW19Dsn6vZThDHDUrXmZMGaJ7bx9qdlf75+/qZo7SluEaLN5dpthPlok5+B/SQFM1AyHAz4BKlRo+YUShQSCCqgSVJjZ0aG4UPDwq1QcQScaTGjqBSyNAuQTqEF7Gkhkee/EWEEU3y2tOlozMHhWB71mjb7drLZ09pokkP+yIPCJb5v5kTnBqsdTMfC1xk4R1Je/PkwbWlIsM8AjJ23AQVx4xVRd3HLhO2pNA8+fAcLdtQrtGD0/zyUGEd4yPaHDU2S/NXluiUyTl6Y6GzwpwVSOeTElfwjh6SpvXbq3XchH76YHWZxgxJ1aadNTrqsCzNXFDgXbqHuWXrXBos1WZXeFF+eUvKCXNplXteXHqs20gSVaWMhpUqKSr4xHlTEaO3KzX4ACpiM2bM+EQ64FkJelQChRlWSdDpg3RMWKq49yK/YoKwUuFAjCPzRawZ/kBlMQDrhHeJ48BCCnrsZuSOUEFdtitwQtvviSDFPz8V7UP69tJGLg8ftnsWQn+BZe08elEzOqdWqa1FamkOFaI8Z8HUdn5Pyytb85TQWqMEVbuVoUhJTO2ljWZZ5HzwO/gbOUUuC34HfyOXB89GR7+ZSNveusCooGLPszVy1GilDp6ou+YWO9GM3mJDNH/y2cnelbrMCR7v5JxVhUpxFdOvTx2tx97Z5L9beYYTPCzI+2et15QRWbr6rDH6cEOJtyDZ7tkF27xlOW5Qhr7/qfHeVUxM4VH907Roc6m3Is9wluVry3ZqsRPknIwkfeHUEdru8n7ro0KXV6kT0r1XqCI5JEWTAocXHxGjthTUuBEshJEaNyCcpKFdiN+soxDBIkRYKbAQUf5ScyctYspDRQFIDZ19UThxPGy/J8455xxfYCG+EFxm/kb+7uhvtOvaWx/Qdn1HvwM6Wh/5u+3fXTX91D+lzBWCH6eDyN/Q0Tx/sfBxS3G9sbiGjxilVYVZrrbqk3h43XHTIZqI3lgngvGupoqblrKAMYZ81/KtxUU6fUquZi8q8h1R+jkxLCqrV15WolZurtT5xw3QzA8KNOWwTJVUNPrhE6QdMTDFW0II60luH3V1zd7dW1CKWzFRm3fV+GgzbclMbtL4nFLVVIc+3Mv5MGHl0b7I+QTgBWHMXZAG+Itbj96xFFxARQuXHxYhBGl5lmnXou0rgOeZ7zHyLEOQNxVJXH88swFY9AzE5xmmksL+eLZzBh2mmvjhKqvtfGCE3kpO3A7Vlaz9Jw9AR7+Dv22X1ycMUXxLteJbq52lGboPkeki0wZ/2y4PfgPlBmUMbdRUyvEc7Gmb9n4H81T+g3l+B/ORf9umifzLsTCOFEOB9nMszbLWTP3HP5Z22j37489M8q756R9u16bCard9vRPGfvr8ycP12+mr/P4+c+wQ3x5+z2vrdPSobH3r3LFasc1VYJ1ozl1dpOecaGJVThnZTz+6ZIJ3v2KVIoQrt5eruKJeF0wZrBH9U7VoU5lmOfE8yVmoJ4/NVZl7Vx+Zu1EbCzr38f9DUjR56LjhFFI8BAgeFiEWC0JHHrhbKZC5cdSw+YuYUUun/QDXLhYq6RFbHiLWkTfLqZFRsGOVBi62QAw74lCMPRv5KLV9rDqa5y89B7m+3EcqQOkZWXr6rXztLP6kSOHCm+IsQ9rFcJdiBQ7JS3HCGHLb0Y62dluVjp/Yz4ldvbtHrd6lWO4Elfa0jTtqdJI71vecNcqQh4qaZm9drthUqckjM7w1iXsw01m0uBRxH2LB0puTtjZEti2h2LODfA2ZcwkmCAqtAJ4ZBLFtuuCZ47kEllP5CzpIBcuACh/PekDwzPOMQ5AvAoslSVNFAOnwomDBBh2QqNjFJOVo1fYWbSvsnGurO+BqxwWOq5yKTwBtyRx/rVvW1c5ZcPiwGA1Iq3PPZejzasEEkfN7W7ahwFVAcM+mh8eJdpBub8u474y35XrzLdWf/exn/luYDD/h/gfp2tu2veXBfHfg2aHCxXOCwZGYlNKl2LOI5vc/NcE9Q+WaNmejXxbvrtVRI7N3i2ZtQ7POmNBflzjhnLe2SMNzU50Fma7H523WCYflakh2it5fV6LaxibtdEJ5wZRB3v26Jr9Cze55QITpQMR2pKdN9PF3t3irdPSANA122/9l9gZvuXaGQ1I0gYKJB49TofZMDR+XH7V1CiqWB2mCeUAMg+UQCCHzrCNd8DtIyzJ+742+Ipq4ZjhvrltXXsKeCNhOYU7tmwoKx0C711Nztv+TaHJ4CBrDGXCTllc3avKoTH9PEEbaxxrdtnlZCU7EQm1maFZDo3sunFVa5axHLE4sT1y9vrOKs14RXMYV8lTQoYUwbLmZCf446NVJAU8HIdrv2tJTAdv3F1iYwdAGrFAql1y3aDoC7QkqGf4ZcP/jqedecf1o22SoCeu43sxTwWDs5qCcJN9GjJeA7Vk/tH+ye79cIVnW4O9DVzljCh2BMnwHsY6I5nnfW0cgmnTwIPAeYTlS6SNfmovwAvBcc53pA/GVr3xFn/70p/Xv//7v+sY3vqHvfOc7vic13iwqjWzH9kGnMN4L7hN/8YZRqaRMxKvA/vBiUOmP5jw6IijXgPvVFdHMTU/SxccM1raSGs1eUeCX0Z49un+ab9/E7Upv3KE5qX5ISv+MJNU0NGn51nKffuKQTLf9EP/sbHHW5awVuzTWiSGdfhrd8ZXVNGqlSzvEifN4t9yL6Y4KFVc16MyJ/f3+6Kn78uJ8FTprtDMcsqIZCTVsXFPUoqhNHygOlGjSgQTXD229WCV7gygjpOfL8NQ423sBeaGxfLDggxcsYJ995aQd0WwLLyZjAukRi4AeCPqaaAaVQe5jcK+j7T27JxBAOlPRiQphdPaQ78RDxSUvK0lpKXHeaqeyw7hNrHeu2br8asW546BjULGz5KnEUEEhDm59hAXaWfZH71m8UYQyRMSopCN4CCHlzgMPPOCXMdFUQ2/nn/70p96ynDZtmm6++WYfO5Y27/vvv983DQGd4b797W/7kHn0bKUzYeCF+fGPf6w777xz95he7h8WK2l6gq6KJp3yctIS1eCsPwQOuFJ8no2hHIWV9b4ixPVjPic90VdO6fTjK1Vu+9yMRD8spay6QaXuXWYoSZ4TVzryVdU1io5FGcmuwuwEGgFGHKkIk4ZygPWd7TkLXRHNvvGmdwJqYNTcDqRgRgOFF8fIsfJiBXUXXHJUFhC/wCqmpslyXhamwCJmGduTnkoCE+HZCLWFC5ntmKjx4r7DRURahswE+6TDCV/XoA0XK4R0HBfp2A/74EUl1iXrEU/2ycT+DiSBRVLRhZflUCXwrHTHOmkPhHGgExbEMxRiL1FDcpN92zPWPWMsRw9O1fhh6T46EJYlJSsW/vCBKX6s77AByb0qeMHe4F2gwsm7g1fr8ccf9+/d888/798pLEzKI0Lq4VLnmtNMhPVJWyLvIbFoEV6sS9q2EVDavQmh98QTT/j0vI8ET8BaJVD7vHnzfDnAPnmnDzT0mEYAA8EESjPaIunME7jZEUjEbd3OKu0oq/XzwHAjXLIbdlX59ZRLbIvlum5npV9H5yIsS3rN5pfW+m3oDc8wF9oxuyKYXcWCG+wj9hTcALGhJjl9+nQfjxRRw9XCi0CUGAQK6xqXKe2qRIKhazhp+UsbLC8j2yOSvGTkyQt0++23+zRYjbxkvJy8mAggbYcEBScfXnZeal48ri+hurDqiUbDX76sgLDTeYTaLC8ubm/yJg86lNB5J6P/aI0YmPZPA7+7A+8SnXaiCW4QrmscMHDzdhTcoK+ANRhtcIOOIGoPlqEfEuKsiDJnVTLQnbZkfhOsgEHwjHktdBUdrE7c3iHrjd7PDf442MaPwXW/Q4EQusb+CG5AxZb3hXcUNzc97S+77DIfwQcRpGilDZO2Y94dLMyvf/3r3iV79913+9B7iCMRhYj4w/wf/vAH7yXifeZ9JZg75QNlwhe/+EUvKIg17zr7JCgG++oJeO8sYPveOegszb4AbUrUGGfPnu3FkSDetIHQUeCRRx7xLwuCSK2TQNxYjixHwAgGTWgutv3jH//oBXDWrFm+9ol1SEWDCUsQseXlxAWLMBKKjZccwf7tb3/rrUz2y8vOi8g+Sc9+qOWyf9YjuFis1IzvuOMOnx+iyXE3O/E2DNof6ezBuDrGUfrfzlogEAHxYglMgAudIAdYnYTcQy8R2XqXFncuYstEu/SBrgxFAxVP3lnaNIP+DkxUgHlXeNd4L/maTeAW533iXeI3BAEmqPiSFms0EEFEkeamoFc17yguYIIjsA73bVeD9Btdx0TzAMCDTg2TL1zccMMNIsQW7RKIHy/c97//fR+Oi16OCBo1TWqf3/rWt3yoNEQVYeRlotclbZfUPOkUwDg+posuusi/cHSuueaaa3ztlheNzgpYwIgqQko+uJd4qXHFUmu+/vrr/dAGLFXCuOFOOvvss30IOHpjkifuJl524+Cgu46CAmdJ0vOYyD38JTABbaUb8mvcfJ23Yvn82Lpt1SFLs6JR2wrqvIW7o7jei22TM3UQWTp1dcfKDOjmKe0V3ifaIHkHeW/w3PBOfOYzn/Hv89NPP+29Nogk3iHC51FhppMP7xfL8PDwrlIZxtqk/ZPxvbyjpAGElXeavBFq3lnKAwLE08/A2L+YaB4AcK1S00T0eCGC4Qa4ZHiReAGZqL0GNdTg00G4XVlG+weD3MmDWi01VUSPvBBLJvIkf8YAIqxYlghk0KYV5B0JHRPodBB0LuA4SI9QkifuIAoLateB2xdRx1UbtLUafQuG7/iwdd2A4TjFTihLnOjxF/cr4kjP2M07a30sYaIrYYUSVAL3O3+xNBFO1tOTFrGls1DQ3tUV6Bji3b77WDVxuVLppWJ5xRVX+MomFVcqqD/84Q/9e3f11Vf7jj1YiHQEQlB5x/kWJkJIKLybbrrJV6ARzP/6r//y7lzElI5CvKeMJafHLWlvvPFG78YlPzoGsQ9j/2KieQDgZWOiLYM2DFyviM5JJ53krTsa/XGlYlVSe0Wwgl6rvEQQdMrh5cESBAQQsUPQ2J4abjCMg7T08iNt0EuWPNgmyBPa7gfYBy5Z2jNpx0HA2U+QFguZc0C0jb4HbXZ8naS9+Ln7i570xuL+pQ2yJ3t0twcVVMSOdkqsQ+JN04aJNwbhxMNDUHWsRiqeiCJpqZQinqTl/aT/w1e/+lU/JIV41VROiebE9zgBa5bA7lSAsTC//OUv+yEr7IPtjf2LdQTaR+ypIxBDYugVh0sV0aJWiQXHC4FYIUy8ULyE1C6xCLEqsQIDq5OoMFis9IKldouLlxopliH58oKRnu0ZTI11iMgFblxEG5HmGBFF9g8s54UlHfshDXmyX2rG1JJpO6XdhZd6yOgjVbh9tV599RVfEEQOpu8qnekIdKA5GDoCMWTAV6JqQ514CGTfF0EjGZc5bnjom54Etoio+3WJPXUEOtiwjkDRcdCN0+wtRDNOE+sPIi1JbgeVBZZFU4vEugvaLgPrEAuSWjC120gQX9YhbG3X7Qm2Q5xx8bKPwKJkfv6KUiU3bdU7c9/WtddeG9XY0L0R7TjN3kBfG6fZEURZoo1x485q/7ku3KM9XTDQNFBbU6uMzAz/fO4NKoW8F8G7sSd48nEzEzSBSgzDWnpC5PYW3OBgoqvjNPsyFtygF3EohdHrF1+oLFcQEoor0q3bVUw0DwwIJWHtmFw9qcdFc9XKldq4aaOmHDlFw4Z/HEi+fVp9cwKCSee1xMRQE0RH8NQRi5jYptyLnjIKDynRdPd/6eYy/YcTTSzOQwE+SXbDxQeRaOKmRDAZAtHXoLcp7ZEHOwcyIlBv4GASzX0NHceWLl3q3w3a7vYEXhjSY53S65SObz1RIessh5JoUmkitN1P/77IB0o/2METcd6Ugbr+UxN8TNto6dWiSW9SBtXz4vQ1qB1HBtaOBlyguE9pQwzGZgHnT89U2iU741bl1jJR2GC14zrFNduThc++EE1eXgqriqqea1dpaQ25mJOTCLvVc0Nl+JYnQeT7cpvm/qIzoklknddff90PzzjrrLN8G37Q4W1/ciiJJm3ZROX590cWa0NB3ytzOwsfpifm7bfOG6uBWXtvLgjo1aJ5qIFVTdCCSy+99BPfYWQZwzooPOhAFA105GFQNe2d9MIlQALjLOnw05OFz74QzX0B7cSMb+X62di2A0O0osmzS0QqhlFRiaRjGtv0VOSbznAoiSbwEeffvrBKM5bsCC85eBnkhPKLp43Uv5w8QunJ4a+VR4H5lA4QdHLA7UzUEHoHY0kyjvKhhx7yyyhcguXUuhkUjcsK65soQQgsBUoAwaPZjqAJdNShPYjoPn/729/8cBYCKpAfcTCJSsL+Scc8gQ7o7EMgBfIgL+pSLGO/hOJjn311HCbngceCSgQFMRan0XuhgsiwKcQTrwjWJst4Zo19S2ZKgi48arAPqn4wQ/VnRF6a/3wZQ5Q6Q68ecnKwQlstMWMJc0c4OsZmYgEhjnR8opBHFBEx2nJYjmBiMTJWkjB6wceEWU/MWqKPYJGynO0RSiKMIIAMRUEciTBCvuSBu4uPHN97771+CAq/iUqCaCKUtMfy98EHH/QCznYMY2F/kb0ZtxXU+mDbvbk7PoUv50fFgevIOXAuxv6FIBw0NTCUaU/Xn8ogYhk0SzAUiyFYByIK1aE05ASwpvnUV0Vto7YU1/hQiAcbNKXwLc9LjhuqMyb295+q6wxmaR4AKMBvu+02bw0y0BkBJYYlAkcBj5VHAIJ//OMfu4O0E5cSkUTk2J6a+K233upFlnQIJAURXfkRTAoXhqHQPspf4lRiyTJPQGkCtbNPghYg4sSi5TduTGLaYpXxpQYCRiPeWJpYqAhyX4LjxZImJCGWCgUy52KtEvsfKmeMN95bEwORr6jUMYaYdnjcs2wbzRAso/vwCa4vnDpSl50wVMNy6QMRXnEQwCfHJg3N0pdOH+ks6kG+XbOzmGgeABAsat1ECPm3f/s3X5NG0BBNrDgCFRDxg047pENIgQg/BHsgOAIBCRBWOvgQkYe0hPIiPBftPwQ1QEQpfIKoQsA6tic4O6LIVxlo4+SL/ggqw0b4i9BQaFHDZx/U/LFo+5qLDNGkUhA5lpVzCMbIGvsPxBAB5Pkzei+EIRyWk6qvTx2jr5852o9lPHJ4Px02MN1/WLqnpxG5yeqfKg1IC324usenAWkaNzhDx43J0SXHDtXVZ43RRUcP8RZ1V7COQAcALDxiTBKUferUqf6DtXSMoMctXxb50pe+5DsC8ZkvAgbQgQURIxYl3nSsSVyMWKqIK+K3bNky/wFcLCmsRQSZ2JQUVD/60Y/8Z4UI60UeWJK4hmnbw0JFNAnTRWFGZyHaRdkW19gTTzzh3WK4fhFTejRynAG9vSMQohnExsV6RjjpUEWnkmgG2BsHBtrb8cDwjFOJJB7rgeBQ6wjUluBbl1uKqlXuP9fW856mSlepXblqpR+Luy9i6WIp44Llg9Uj89KU6/52B2vTPABQWONeRQxpL4SrrrrKW4t8xYCODyxHxOhJi2WKtXTBBRd4qxPLDzHAemIZ1iQuR9yoCAMWJl+IJ38sU0Lj0Z7HeDceSkQSoSW8HtYpFiVfh8eSJU8gJB7HSH4IDNYZ2xI6L7L3bW9v08SyxMWHVY744+ajQhKcp9E7ocMbbf089zy/wQcE9jeHWptmW6goEGKOTjPjBmVowpDMHp/6pzSreNMKDU6Xrjj/lHbTdGcaPzjTWckZGpydotSk7r/3JpoHAApwOuUgRrRpUpNG0IjriiuVSEJ0lrjwwgu9wM6YMcO7bREsOvWQDqFjntiwuHfJB9GlzQirkWEVFDSkIz/mEVLcr1iKCDKuWgQEUcHCRFTYhnwR1ODzRVhnzH/ta1/z2yJEAX2hIxDHyzlw7Adi2IIRgsoePbipsOxt2JOJ5qEDlXUq/TwXGAC9HXPPHkCCTjUU6pFCBKzj1uCuffzxx71Lke9p4pZlOesR0sjtcKcyH/Ru7ShdRwTpI3sosox8WdZeHn1lnKZx4GG4D233fBEk+FZkR5h79tABL9fLL7/sK/00I/V2rCPQAQQx60jQAuGj5nXdddfpC1/4wu5eh6RvT8RYFmwHHaXriCB9JCyjBhhtHobREbShY1VgRRpGX8VEsxeDgPGBWzoGMUYz6AFrdB56y9JDmImCO5iCL7YEYFkHhXvkxJjBoBdzABY4Ha/apiVP1kWCUJBH27R02mKfAVj6He2/bY9f9sG+2qZlWWQvZ/Ln2NvbP/tinwF72n9759/e/rkmbXtZsy3XIPJcDaMvYu5Zo1v0BfcsjzjtafT8RaToDBRA227wLVFAmIjURG/bSIgFTDtzZBB+2tvoYIVIREIvY749GgytQIiCjl9txZQ2VoYHBRUijo/OW7glI8Hap12aDxIH0CuYYyXaUSS0mdNWHbTfss8gqlRb4aONmzyDT7qxf9oScZlFFg1U4MiTYwi8GVxTOqm13T8xkmmHDDwjnD+VFULj0aZJm/neYs8ixuaePTQw96xh9EIo6IMg+ARpYEJI6KkcCQLDeNkgTTAFvYsjwXJiHG3btAhDpDghPogRQtw2bdATOoD9Mx62bTq2RaQjQeDb2z/LIq1S9o+wcw5t07YNTxfsn2sTmY55zj9SSLFIO9o/6yJhW4SXNnkKR8Poq5ilaXSLvtIRCIFjrGtbtyFCyljWAEQDy6mt9Yjo0pMYKzIAYUR02rbRYTXS2zPoIRqIJmnbvm70jsYiC6w3jg+BwR0aCeux4LAiAxBGBK6t9cg5kS4Yh8o+yQ/RjRRoQMBIGwzBYf+ka3v+tGkH5x+0byOMXKu2++f8sbIj9x+cE78ZEhVYth1hluahQ1+zNE00jW5hvWeNfYGJ5qGDuWeNQwsrR4yDnBh7yI0ITDSNQx5zthgd4b3ZpplGBCaaRrfpi5JD2x4dVl555RXNnDnT/z4QINi09QXhE/cGbY6ES+RTbXsSe9bRyQj3Ju2p7cFyOu6wX6s4tE9DY4viXClpumkEmGga3YI+Ia0tfa/ApfMK3x792c9+5gPo06EGENP2BCSyAw3r23aoYRmdiNpuS7q2aZkPOiSxDcNWpk2b5r9lCkH+bfNiHqEjrOKjjz7a7r7ID+ikM2fOHP/t1UCMg/XBdojvE088oYULF+7ejjRMkUTme6hRXdekeKeaFtzDCLDYs0a3yC+q04DsZP9h174Ew0oQHsYOfvrTn/axdRFRJsYe0jOV3p/BMsZD0gMUi3Tu3Lk+DT1M6QlKXnz3FNFjjCVDKxAmvk/Kt1D5ADhp6eiAUM2fP9+Hk6M3L2LEt04ffvhhHxuXT7HxvVRCzjG2kV6zHAd5cKz8ZV+IPsdNYY5FifCxDTE86URD3g899JDfhvGVCB/Hg4XKMdLjly/X8L1U9sF4TZaThnGaHD89ajlOzp8v3yC+9ODdH0NGOL4DHXu2rqFZm3bUaOTAFCV34buLRnTgaeG9oNd1X4g9a6JpdIuisgalpcQrOSmuT7mwEDpi+vKyMnYQUfnTn/7kAwAgQIgLAnHXXXd5YcHCYxtcuW+88YYPVIDA0KsTYbznnnu8K5SPXSM4bEv+fCSc9OyH4PmIIx8NZ9wl1i3DTdgXeTH0BbF45JFHvFghwoFQPfjgg3r66af9sBVElWMORBNR44PkiCDHwDLOhy/ZMI9ocuxYqHzM/KWXXvKVApaxLfkzz3KOgy/b4LYFzh1rlOOncCMvzmNf0xtEkwohNjc9ZxM6+XV/I3r6mmjak2B0i6yMBG0tqOlzLlrGHBKiEEvxjDPO8K5MxO7mm2/WlVde6YUT0cESJBLQD37wA/9CIyhTpkzxYQ2xNhFFPgJO9J2f//znuvrqq734YaUhqHy9BpFBhAh6gPgiUogeyxnPSF5YmHygmchBWJhYvhwbn4jDsuQvX6m5/vrr/6lgQWAQSYSFaEf8JSA6x8l0+umn+/0F81jMCCbRjRAkvukKVBj4Ig5WJy5jxJm8+foNX9HheIPxnAc7Le5ZKCht0ODcZCUmWDFpfIw9DUa36N8vSdtdjby6rm+1eWGNEQQg+IulRU0XVyXCwHJcoLhaETZEDTcpgoOrkgg5Q4YM8duQjvRsi+uSbejYg5hiLSJQCDKBARBIRA13L5Yort7IwALkhWsVkSRwAPtmWyAdE/lHQn6EwmM57lgsUqw0jg04Zo4DgWc57Z3BefIXwUUc2S8WLvsl4AEiiWUZHC/5IqaHAnX1LV44+6Un2PhM4xOYaBrdIjUpzruvthfWqrkPWZuIHKKC1YcwYXUiFrhOETsss5NPPtlHrsHSIi2uVKxBBIXfrMMywwJkgDZu1fvuu8+7QbEYca0irORFdCBcjbhlsUT57ikizD7JH7BEsS6xEklDGyfbYlliFeISRmgRtiDaDiCKtJkinEwIIOLLuXEMuGCD7xWynmNHYDl+zot8EWaszsD6xdrkmBFSjiP43iqVi4Md6igFpXXKyUhUQrwJpvFJrE3T6BZOe5TtCpcNO2qUk5mopD7iysK6wlWKaPAxboKm04EGCxFr8bLLLvPfMEWMcM/iLkWEEJogtiyu1/PPP9+7YWlrxAWLG/PSSy/1y2irIU8EkADuiCuChBsUseQD4uwHSw7hQ4xJg3DiokW0cJ2eeuqp3p1Mhx/cxXx0HNHF1Yr4I3i0j9J+iZhyTOecc44/N7ZBeNkmCLnH+bA9FQAsTSxP8kKYsaBZhsua8yN/lnEdODau1f74kPeBbNOsrG3U5l21GpyX5NvruQbGvqOvtWlaGD2jR1i7rVr1jc0aPzxdiX2g0wSPPVYTwonbFMsL8aCQ5uVFwACxgCDmKqJDGrZHyBA2BBhxJC2iRVqWURjgciUNfxFj8mB7xA8RxnpjHWnZhmWsY55jIi+OBxFhGdszz/5JC/wO9o/gsQ375PzYJnDrcq6sZwosTZZxTkGPWNIHeeC2Zh2CzjFyrKRj/b6G8zkQYfQam1r00ZYq3/Fn9ODUPlMJ7MtY7FnjkITu+QtXl2tw/2SN6J/iCmWrnRtd50CIJm2Y2wpqVVjeoEkjMpSabMNM9gcWe9Y4JGEc2xFjMrWrpF67Suv7VPumYfC88uwWljVo5MBU9zxb0Wi0jz0ZRo+RmRbvXVr5xXXa4abGJhNOo/fT1MzwknptdVbmoJwk32M21nrMGh1gomn0KAP6JWn4gBTtLK7Xpp01qmsgHFx4pWH0IngueT637KrRzpI6/9zSE7yvRbcy9i8mmkaPQkfDgdlJvkNQQVm9j6pS6P7W1h+asUuN3gliWVQeej53lTZoWP8U/9xaW7yxN0w0jX0Crtpjx2WppaXV1eLrtXFHjbYX1nnxpIZv1qexPwmeOZ4/mg4273TWpftL558ph2UqLyvJXLJGVFjvWWOfQ61+xaYK1dQ1aWheijJSE7xFShHFX8NoS21dnea9+64PEnHm1KkaNnRoeE3noYALRLOqttGJZr2SEmM1YXi60pIZhxlKZxwYbMiJYbQDTxmfWSqpaIho56Qkc/9boWW0gfGhy5ct98EZjj7maB+VqPPEhD8iwMPmfrn/6RWbnZ6o9JQ4syx7CSaahrEXAr0M/xP+1zA+pqamVm+8/rq2btumiy+6SKNGjwqv6TwhaQyJpslk78PGaRrGXqDg8u5Z9w9TrE02/dPEk+KqU60t/llpP010U+g5M8E0egYTTcMwDMOIEhNNwzAMw4gSE03DMAzDiBITTcMwDMOIEhNNwzAMw4gSE03DMAzDiBITTcMwDMOIEhNNwzAMw4gSiwhkGEavo6amRq+99pq2bt2qSy65RKNHjw6vOXBwTEy9rchMTk5WRkZGeK7vYWH0DMMwuklvFM0VK1boo48+8nFxewuxsbEaM2aMTjjhhPCSvoeJpmEYRjfpjaI5Z84czZs3T3V1deElBx5E85hjjtFnPvOZ8JK+h8WeNQzDMIyDFBNNwzAMw4gSE03DMAzDiBITTcMwDMOIEhNNwzAMw4gSE03DMAzDiBITTcMwDMOIEhNNwzAMw4gSE03DMAzDiBITTcMwDMOIEhNNwzCMHiAuLk4xMTH+N+HtmIBl/G67PnKe323TM/E7Mt3eaGlpUW1trUpLS8NLjJ7GYs8ahtHrCGLPbtmyRRdccIFGjhwZXnPgePfdd/Xee++pvr4+vORj+vXrp/T0dC9Y1dXVysnJ8aJXVlbmv4rC+vj4eFVWVnpBGzhwoJ8vKSlRSkqKj7sKu3bt8vmkpaXtDgyfmJio8vJyVVRU+PlI2AexZz/96U/7a1ZUVKT8/HwVFBTo/PPPD6fq3XDOr7/+uj9vC9huGIbRBQLRXL9+vSZOnKjc3NzwmgPHunXrtHHjRjU1NYWXfMw555zjhW779u3+2PnyCNbhzp07vVAeddRRXvjY9q233vIB1hFB8jvyyCN3C+2SJUs0YMAAjRgxQqtXr9bYsWO98HId1q5dG97bx7AP8j755JO1atUq/xWW4uJifyzHHXdcOFXvhuvDuVGRMNE0DMPoAlhsc+fO9YVpY2NjeOmBhWPCymxbZCJcWHWs37x5syZPnqyqqiovinl5ed76w9L84IMPdN555+nVV1/VhRde6IUQd+rUqVP14IMP+s97IZycL+I6a9YsXXXVVV48sbjJpy3se8KECT7/NWvW+H2yLVZsZmZmOFXvh/PgSzZYzL0dE03DMHodFPxYaVhnvaWIwpJDmNqKOAU+7mMKfcSLT4dxzIgcVmJSUpL/UPTKlSt19tlna/bs2d6CPPbYY/05YlVOnz5dhx9+uM8PwWPbxYsXe0GcNGmSF+EZM2b49ZEE7lmEF8FmH3xqi31i/fYlcM8OHTo0PNd7MdE0DMOIgo6+p5mQkKAzzjjDCxggXriUcTsifligtEtiWWJNIr64TrEEEWEEFCHOyMjwrtthw4b5ykLQnksFgrZP2lTbEohm8D1N8lm+fLkKCwv9tj0FMtHc3LzHTklYzaThehzMmGgahmFEwZ4+Qo0A0qEH9ygdeJhHKJlHTBA3tsOawmqkjRbxof0RkcnKyvKuX8SSNAgl87hrESrSIUhtaSuaAewL67YnQCI45hUrVvj2U86zLZwzHwynonD00UeHlx6cmGgahmFEwZ5E80DRkWh2FQQegUS8AQGnZ+/bb7+tX/ziF7rvvvu8Gxpx5DrgSkbw6QH7hz/8wQvsLbfc4t3DwbAXLGjy6chC7WvEuQvxi/BvwzAMowNwu27bts1bgb0FhGjw4MG+7bO7IHhYxs8995yef/55vf/++743cHZ2tu+ohOsYKxPL+IknnvAdlejcxDHQjoqgIrhYx8w/+uijfj3tuqNGjfJCejBgwQ0MwzAMb2Vu2rRJv//97337KcNXHnvsMT/UhiExVBawKLG2n376ad+z+cknn9RDDz3khRF3Mulw4/7mN7/xnZsY1/q73/1OixYtCu+l72OiaRiGYXiLETdqYLUy1vO0007znZq++c1vatCgQbr55pt9D+Bzzz1XRxxxhB9SA7R1nnTSSTrllFP8mFE6QE2ZMkUnnniit06xPA8WTDQNw+iT0PmEHqYddZLB3Ui7GgEEelM7ZG8F0ezfv7+++tWv+t69WJiPPPKIFixY4NdxjbmWL774op599llvmRKQIBIsTdo7aeskPe2hjGEl2MPBgommYRi9HgpoXIBBhB3mN2zY4DudPPPMM34dQzsYakEIOUSSicL9pptu8q5GCnG2ZT1Re6wP5CfhmtKGSfslQ1ywJocPH+7bNOmJi+WJW5Z1dP6hVy/XPGjnpEcwlRgmRBd3Lfdr2bJlPu3BgnUEMgyjV0NhTlQcLBwCA2BZ4iqkI8rDDz/sxQ8XIuMfSUM7GoU0bXB33323D02Hy5HCnW3Igw4vWEmIAVZUNBzsHYHoictQGfLi+mAtEtaOwAlcO0STvxdddJEXSAI5XHbZZT4gAa5Y7gl58PvSSy/1eXJ9r7jiCh1//PE+v4MBG3JiGEavBmvmuuuu827CIUOG+F6YP//5z32HFIY5ELbu6quv1ksvveQFFRci7kDa4e68807fMeX666/3wQWIsoPIYA39+te/9q7DaMczHgpDToy9Y+5ZwzB6NdTrA4sQwSTAOR1W6HxCcHPiuPL74osv1qmnnuotHtyCWEPjx4/3lhMh6hYuXOjHDNJhhXw+/PBD7641jM5gomkYRq8GVysuQXpiYnXikn3jjTe8xYelRdsZYwrvuOMObwmyjG34G3RICdowEVPctbgag3Y5w+gMJpqGYfRqGDA/f/58L5gMcyDAOWIYtLPRholYIo50XMEq5TdgWdKDlhBvWJ20vxHRJhhaQR7RQr7kh9j2likI32fsP6xN0zCMXg+RZYhCw+B7xO+aa67xHVGIQkNbJW16tHnSo3bcuHF+EP53v/tdPz7wqaee8u2e9AYl2g29ORHfa6+91rdvRtsRiJ65HQ1vOVBw7FwH2nqN/YOJpmEYfQLEip6rWJmBW5WetUzM85fijN+RQsh4TrbBXct65hkiwbxhdBYTTcMwDMOIEqtqGYZhGEaUmGgahmEYRpSYaBqG0ech5ilBwhl+Yhj7EhNNwzD6PAw5uffee32Q8d7Uu9U4+DDRNAyjz4JlSdg8RHPmzJk+yg/DUsziNPYV1nvWMIw+Cx9CvvHGG/XOO+/4qD8M9j/zzDP1P//zP368pmH0NGZpGobRZ+GzVXxFgy9xECnos5/9rA90wHLD2BeYpWkYRp/nscce0yuvvKLvfOc7OuGEEyymrLHPMNE0DKPPw6e+8vPzvUs2Jycn6tB4htFZTDQNwzAMI0qsTdMwDMMwosRE0zAMwzCixETTMIyDh5oaqbxcamwMLzCMnsVE0zCMg4c335T+8hdp40a+JRZaZt02jB7ERNMwjN5LS4tUVhaaCgpCU11dSAhra6Vdu6QdO6TKylDadeukd9+ViosJSBtan58vlZaGRJTtKiqknTv5qjQf2zRRNTqF9Z41DKP3gtjdc0/I7YrI8fcrX5FOPFF64w3p1Velqirp5JOlK66QXntNWrBAuuYaaf16afbskLt20iTp2mulhARp2jRp+XIpMVH62tekk06SkpPDOzSMPRP3C0f4t2EYRu8CC/Puu6VZs6SkJCKzhyxDrMbf/z60HgvziSek3Fzpo4+kDz6QJkyQ7rhDKioKCeI770gnnBD6e/vtoWXz50tbt0qnnir16+dMCBvbaewdc88ahtH7ufJK6Ve/Cokh1uZLL4WE86abQuJ59NEhCxORBESRtLhicdUedxwx9whWG+okNGSINGJEyArFtWsONyNKTDQNw+j9YAmmp7sSyxVZCByiSKg8LE1EsalJSk0NLQPW33CD9KUvhcT1ySel558PtXPilu3fX/rUp6SrrpIGDDAr04gaE03DMHoviFlaWkgEEUyEE3G87DJp2DDp/vulW24JWZ/nnx+yHjMypJIS6X/+R5ozRxo/Xpo4UeKrJ1OnhkRywwbpqaekJUtseIrRKawjkGEYvRcsw5kzpeHDQ6JHRx+Ek44/dBKaPj3kXr3kEmnyZGnhwtBwk9NOCwnuiy+G2i1PP10644yQAL/3XqiDEG2kn/tcSGgRZMOIAhNNwzAMw4gSq14ZhmEYRpSYaBqGYRhGlJhoGoZhGEaUmGgahmEYRpSYaBqGYRhGlJhoGoZhGEaUmGgahmEYRpSYaBqGYRhGlJhoGoZhGEaUmGgahmEYRpSYaBqGYRhGlJhoGoZhGEaUmGgahmEYRpSYaBqGYRhGlJhoGoZhGEaUmGgahmEYRpSYaBqGYRhGlJhoGoZhGEaUmGgahmEYRpSYaBqGYRhGlJhoGoZhGEaUmGgahmEYRpSYaBqGYRhGlJhoGoZhGEaUxLQ6wr8No2/Q2qLmlr09tjGKjYvlAVdzc5NaY+MVHxsTXteTtLrDaVWL219cJ/Pf+6sXo5h9cchdJnSu/qhjYuVP150D8zH75ECD/bnr4HbWqy6Fcchiomn0LVqa1VC4Wu+uzFd9XYOa3aKYuEQlJcUr1hWvLc1OUJuaFZMwUEeecoQyajbqrWdnqmTSF3TVKTmK66mS1702Lc2Nqqsq0s7tG7Ur5iidMjk9vHLvNDc2qLayQrWNjWp0JxET50TdHZw/PITInWdLXJJSMvopM+nAygXH0tzUpLqaShXv2Kqi+gRl5Q3TgKwkNRXnqy4xXVkDBiotPrxBT9FSoQ2LVqg8fbTGjBqorAN8HQwDTDSNPoYTlOZybZ0/Td89/Qa9mJCh/mfdpGcfuU4TY4q07v139coDt+svS07TH2f+QkNmfEunXf+mhoy/UX9//2c6IyOcTTdobW1SfclmLZp+r35z18OaVztW37vzed18dk44xd5pbqjUtg+e1V233qJb50pHnneFvnjSUKWysrFC+cvf0sqKPF3403v0vZOz/DZ7BBFHbF3VwRnYPUars9JL18zRE/fco5lbMnTkBRfppAkZqlr+pp6bMUcLFqToou/fqO/dcLHGR19naB88CK40inVWrDdcNzynb3/nV5o57Grd959f03mHZYbSGcaBBNE0jL5FQ2vljumtP3WPr1KyWwd/+9nWgvCalma3bteK1se++93W57dWtRbMu7f1X084rPXCm19vLQyn6RYtta1lu1a2zn7msdYHbvpC6wR3DP0PP731l7OKwwk6QdHK1sd//YVWHXFu6xefXhNeGKJ+6/zWV565p/XP75WHl+yJltbm4hWt78+b0/rGiprwsh6gpb51w2t3tn7zjCNbz/zy/7a+vLIsvCJE8aK/t95wyRdav/vrl1pXV4YXdpmW1qats1uffXN560c7GsLL3J2uqmqtrWtobXY1AsPoDVhHIOOgoam+TpsWLlVT+jBNvew4xcYlq9+xX9c9b6/UCz87S7nhdN4qa2pUQ0OjGhvDf5ua1NTUrOaWcJqOiElW1oBJOuvyi3XeOafrtPDiT4LrNpTfXpte26VV8YOP1VkXX6OvHYN1FXLXNjdzfLifm9xxN4Xbdd26+ny9P/0+PfTXh7Shqs6la3FLQ/m0tLjjwAUcTr/7cLDqyM9P7R9ra/48vfz3p/RS0USdfsVndOqkT1q8OUdfrqu/cpbOmuwsQ7+E/bn83LVtcvtr4jg+3qG/Jhwb+/TH5M6j2Sdw66pW6ek/3KLnZ7+twtr63ccan5Ks+Pg4n2Y3/thD59VEHp84r/B+3HVq2b2frt4Hw/hn4n7hCP82jD5Cixqq1uut2x7TOwkpyjj6Un37krFqLV+nmU9s0phzjtLAkROVl/+SfvWdH+r//vqMZr4lHX7ZFPVvbVJ18Sq99sCv9L8PztKKRTP16CMz9eGalVq+cr2KUg7ThAFJ4f3siXqVb1qqOQ+9rDUDRujEi7+oqaNT/Jrmim1aMuMRPfDiBmWPPVKDOnJb1hZpxQdz9NTyGh1x9iX63MSwe7dyo5YtX6yFxQN0xNBkNVUWad385/XKvAXaUtys1S9N07QXF6ggaYAOGxSnjbOm6bbb/qQX1jYrrqFBzTEJyhg6WBm1W7T8nec07f5/6IU3V6gsKVMDB+QpNb5RlVsW6/Xp72jF2vVa+94LevrtLYoZNEajshNDx6BGbZh7j6Y9+aiqJl+hr37uMzqqf7AuIEG5Q4Zr6KiRyk5PVlz1Li179029+swTmjF7nlZVpSs7r7+yU2LV4K7JohkPadaaUm1etUIzH52mZxesV1PWIA1KrdZ7D/1Ct/z1Na0sjVdrWblT5AHKSY9VwcKXdf/sfGVl52lgv2Snl00q2/6BZs2Yruefnqn3Fq5VafJA5WZnKCVeatixWnOe/7Pm7MpQ/Zr5evqvf9WzK6o0cNQw5XGM1ixqdBOzNI0+DpZFlXZtW6pZD9ymO7aHF8elKGfUVF135QS9+cZ8zZ9XqQaXtq54nV7+5Zd19R/m6Ohrf6t//963NTXtGd3755kqyZukiVEJ5p6pK9uhhW88oL8/96gWbK0OL90DzQ1qqCxRSQnTTq1Z8rbenPW6Nte7dTVVKv3oTT388B363o9/r2kvL1XCUcdpfOUbuu/mX2rah82aeOy5Oum005U54kid86XrdNWFJ2pI6ft6/O/TNaPwWH37Vz/SFWM26oEff18/ffB1rdo0X0/+6r/1n//xn/rfl97SgtXrtHrjci3eUqam0BE5CrV1SbHyV0pDstM1ICstvPyTxOcMVHZOtlJbtmnm3T/Un2cu09DP/lg3XDpC8/90t25/eJ4273SViOdv009u/rVuuOluzd5Sq5FHD1bNK3fpR9+4RY8urtVxF16h0YeNVf+jztfnv3GtLpqYquIFj+pX1/+nfjNzkTbVt3gLc8ebt+kbt76lqrGf1fW/uNlZ4oW67Uff0I3T5mnj+nxt+GCafvr/7tLNN/5GL1cM1tnnjdCuB27Qv//pNa0rrAsftWF0HRNNo2/jLI/6Xcv0yj8e0t+fWaDS8OIQzqyIixTBOlUVLtbcu5YqLjZWmWmJSkxM1ZDh41XetFXzK7M0fkBba6rzpI04UdfcvkjLX3tG153Qvth8grKd2vTWC3r4oYf99PgzL2jxmo2hdanp6j9qvMYMHqHcyUfpgis/r0umHqfjjjhaOfnF+nDtNlWEUkZQro/mv6hN61do+OghiqlOUfbIgRrdb7G2LFyowsRjdfLFUzTp+Ak6+dwv6Ie3PqBH/vgb/WDqMH3cAdbJZ5WbotB8T1OlmpNGalDeeGUnJygpPVsJyUu1o2CNyuKG68RTpmrM8GE647LP6+ovf1mXX/lj/fQ/P6dxLbM0681l2lwczicgeYDGn322zh0+RAPCi7TjNd3760eVlTNKU4YPUoq7vQPP+5y+NbRMc+99TG+WtmiEs+wz3TUbe/mX9aVzT9AxF1yg83NytXbRWm2oqHH2s2F0DxNNo28Tm6CUIafq6htv1f1P3aFrk8PL2yVOcamZyjomzrfB0duU9q+66krGfPSo6y42IVaJTpSjIneEJlxytX74ox+66Se6+We36Btf/hcl7+14mpulxnZkoLpQ25Zv1+olJdqxeYWWLFnihPIMfeVnz+rX11+h8RlhezI5RcnJyQo5lduSIGW4KT3UmrjXJsGUybrkB/9PP//BRRpaNk+PPztTS9cXhFc63H3iGrvLsvs6j5xwgnL6Z2pz4S6VVrdvBXIFadGE0g3LNK+8WE2ZaUpKDOR9jCadk6GssiVav75MVVjn7dHQ4G743hqsDWPvmGgaBwcxiUrOPk5nn7gnpUlUv4En66v//WMdn9moZR+tVmX5Gn24dItGHf1F/eTCCaFkrS2ufA060xwA8ibq5KmX6V+PyXSHEtmZJkpa6TDUpNiswRp79Ok666yzwtNUnXzkOA3KiGZAZX+NOCZPw46I0fodJdpSUBZe3gHuIAsXPaPf3nKHntuUq3M+/SkdPXZgeGUHZOfp2JR0DXO3LKr6ijsn7k1JeZXqGoLKQqISU2MVFx9tJobRPUw0jYOEGCWnZ+v0qy51xX3HxCRnaejp1+rHP/iaxjZv0tKt6brwV/P04fM36ezBLkF9mXZ++JwefPAFLS3pumy2OhHxU3i+czirNy5eFRve1evPPaS5O8OL98BuvWCHsXGKj0vQ+i35WrB6oxrCB9Fav13vz5+vdxZsDS3YI/EaMflTOmHCmap+b7nmLVqtnf90Mu78mhrU0Nik2g0zdO///k4ra/N0/AlTNDDJrw2n64DiAn3o0qcOHa28zJCLYE+6lz3wMA1Oy9LG/J3OMq0NL3X7QD+zx2nw0Awld79J2jD2iImm0QdxxXEwzIB/GF7AfDtlNMIVSsT6FtUWfqRn/+tf9LXfNGrCWcfryMMnafywfopjWEJLjXZteFn/95XP6Rv/8RNdc+cctW1qC+Hyam5SQ33t7vbE0P5DB9BSU6i1c5/UtIdf1JJdflG7BMIa+h2ybkNTs2p3LNEbT87Wi2/nacggErSZ/B/+c3+d0qTGxSizpdEZY9VqSBikw046WhMT39HTd/5JD8/LV1VlvpY8P0OrP9qpjHHDQ/tl/x1cN4gffrquuPqL+tyEVZr1yF81fc5G1TRHHGfZGs184I965Om3tXrrdm2sLNLW2gbV1jWoYMcWVZUVq6GpVTV1rXKX11Pv5hsZiuK237j6A7VOOE7nTT1cI3NjlO1Ko6SmOncONapvcNZybb0quc7BdXICfu3njlTye/P19optKmrk+NdpxfuJOv6qz+rs8UOU6dOGro0n2Ja/oSWG0S1syInRt2hpUt229/Ton/6oe+avVyUD8DYWqyo3R1n9Bmp4TtjUYGhJwXI9e++f9eqynUpISdDIY07VYanL9Pxv7tKrq9/Uo7ffqltvvVW//e3t+uO9L2lt7GQdc0yuSpe8qHmF2Trvimt1+VG5u9vUQjSppmyrPpzuRPH+B/XQhmLVNrRoV1W9cnNzlZUzSAklyzX9nh/rlmc/0oATP61TR7RtNWxWXel2LX3tMT3x5GNasqJEdc4q3JK/SSsWzNbMp+/T73/5f7p3VZ1GfvEynR37kV588kktLEjU6MlHa0JSsRa8/IyeXliolFGTdNxJE9W/fosWvfK4nnxttcrjh+r4C07VmLRaLXpxmu68/f90519eVf6Qs/WZL12qsTWL9dpfn9aLj21QfepAjTlqjAZnpQoP5yeJVdao43XGGccqZ+ebuvOuaXpyzgptWbtKc158UI+8vl7Zp1ypyy88XqPz4lS9dolm/O1xPfrCLO1KSVPS9mKtmPOOtiYP0bi8Jr03923NfmuVqp2AlX30gp6YF6/TLvuCLjtltDKcpdm05i3NmP6CXn5rpzuvoUrY8YGee/51fbhZGjx5sg4fNUqHn3iihlW/qafdeZbWVWrjjOlaM/rz+tcrz9akvFp94M73qdc+VHnaOJ10zASlrZulh55+XYsr0jXhxGN0xPBcpcSbrWB0HQujZxxStDaUa+PcB/XL/5im7dl5LFFDVYk2zl+i5rHH6KbHF+hbRzaopiZWGRld7UnbosbGBjU0xCot2s5A3cVZp/X1ztJ0Ep/iKggBTfX1qqttVFxSslvezeCwDbXOiqwXoz8SUlKUnJT0yQqFs3Rra52lmJCk5MRExdXXOMs0XvFJiUrc9KKu+cF/q+LY6/Vf135e43LilZTilkceUnOjqmublZiUoISET1ZV/omGalXXNSomNV3J8cQdNoz9gz1rxqED4zmX/0O3/+Q+jb/tPb0+43U3vaG33nlXC5Y/oe+OzlNyXKzi4pK7IZgQ6wr95P0nmBAb50QIYfxYMCHeCVt6v/TuCyYkpigls5/69euntLaCCfRkTstQGoLJfFKqUlOdMLZJmJCa6q/vJwQT4hKUlp68d8GExDSluWNJNcE09jP2vBmHDrHxSswYrLxBqVq6YL62V9Y7A61RFdvWa9WHa1V2wc361JHhtEaPUlNZ7tuAG52V2mS+LaMPY+5Z4xCjVc315SpYu0KrChnUF6fE1IEafeREDfWfGDF6msbS9Xr/7Xe1ZF2BamP7acjkk3XK8eM0PCdskRpGH8JE0zAMwzCixNyzhmEYhhElJpqGYRiGESUmmoZhGIYRJSaahmEYhhElJpqGYRiGESUmmoZhGIYRJSaahmEYhhElJpqGYRiGESUmmoZhGIYRJSaahmEYhhElJpqGYRiGERXS/weCV9P2+96a8wAAAABJRU5ErkJggg==;" vertex="1" parent="1">
          <mxGeometry x="240" y="370" width="461" height="266" as="geometry" />
        </mxCell>
        <mxCell id="q_IPMps0T10aTlea4-SQ-52" style="edgeStyle=orthogonalEdgeStyle;rounded=0;orthogonalLoop=1;jettySize=auto;html=1;entryX=0.5;entryY=0;entryDx=0;entryDy=0;" edge="1" parent="1" source="q_IPMps0T10aTlea4-SQ-3" target="q_IPMps0T10aTlea4-SQ-51">
          <mxGeometry relative="1" as="geometry">
            <Array as="points">
              <mxPoint x="260" y="710" />
              <mxPoint x="525" y="710" />
            </Array>
          </mxGeometry>
        </mxCell>
        <mxCell id="q_IPMps0T10aTlea4-SQ-53" value="Forecasted state" style="edgeLabel;html=1;align=center;verticalAlign=middle;resizable=0;points=[];" vertex="1" connectable="0" parent="q_IPMps0T10aTlea4-SQ-52">
          <mxGeometry x="-0.2361" y="3" relative="1" as="geometry">
            <mxPoint x="18" y="-7" as="offset" />
          </mxGeometry>
        </mxCell>
        <mxCell id="q_IPMps0T10aTlea4-SQ-3" value="Machine Learning Model" style="rounded=1;whiteSpace=wrap;html=1;" vertex="1" parent="1">
          <mxGeometry x="210" y="730" width="100" height="70" as="geometry" />
        </mxCell>
        <mxCell id="q_IPMps0T10aTlea4-SQ-4" value="Inverted Pendulum" style="rounded=1;whiteSpace=wrap;html=1;" vertex="1" parent="1">
          <mxGeometry x="630" y="730" width="100" height="70" as="geometry" />
        </mxCell>
        <mxCell id="q_IPMps0T10aTlea4-SQ-8" value="Sensor" style="rounded=1;whiteSpace=wrap;html=1;" vertex="1" parent="1">
          <mxGeometry x="520" y="860" width="100" height="70" as="geometry" />
        </mxCell>
        <mxCell id="q_IPMps0T10aTlea4-SQ-10" style="edgeStyle=orthogonalEdgeStyle;rounded=0;orthogonalLoop=1;jettySize=auto;html=1;entryX=0.75;entryY=1;entryDx=0;entryDy=0;exitX=0;exitY=0.75;exitDx=0;exitDy=0;" edge="1" parent="1" source="q_IPMps0T10aTlea4-SQ-8" target="q_IPMps0T10aTlea4-SQ-25">
          <mxGeometry relative="1" as="geometry">
            <mxPoint x="510" y="910" as="sourcePoint" />
            <mxPoint x="524.9999999999998" y="810" as="targetPoint" />
            <Array as="points">
              <mxPoint x="520" y="910" />
              <mxPoint x="415" y="910" />
            </Array>
          </mxGeometry>
        </mxCell>
        <mxCell id="q_IPMps0T10aTlea4-SQ-15" value="State variables" style="edgeLabel;html=1;align=center;verticalAlign=middle;resizable=0;points=[];" vertex="1" connectable="0" parent="q_IPMps0T10aTlea4-SQ-10">
          <mxGeometry x="-0.1297" y="1" relative="1" as="geometry">
            <mxPoint x="42" y="-16" as="offset" />
          </mxGeometry>
        </mxCell>
        <mxCell id="q_IPMps0T10aTlea4-SQ-13" style="edgeStyle=orthogonalEdgeStyle;rounded=0;orthogonalLoop=1;jettySize=auto;html=1;entryX=0.99;entryY=0.568;entryDx=0;entryDy=0;entryPerimeter=0;" edge="1" parent="1" source="q_IPMps0T10aTlea4-SQ-4" target="q_IPMps0T10aTlea4-SQ-8">
          <mxGeometry relative="1" as="geometry">
            <Array as="points">
              <mxPoint x="690" y="900" />
            </Array>
          </mxGeometry>
        </mxCell>
        <mxCell id="q_IPMps0T10aTlea4-SQ-14" value="State variables (e.g. theta)" style="edgeLabel;html=1;align=center;verticalAlign=middle;resizable=0;points=[];" vertex="1" connectable="0" parent="q_IPMps0T10aTlea4-SQ-13">
          <mxGeometry x="-0.4602" y="2" relative="1" as="geometry">
            <mxPoint as="offset" />
          </mxGeometry>
        </mxCell>
        <mxCell id="q_IPMps0T10aTlea4-SQ-35" value="&amp;nbsp; Inverted Pendulum&lt;br&gt;&lt;br&gt;&lt;br&gt;&lt;br&gt;&lt;br&gt;&lt;br&gt;&lt;br&gt;&lt;br&gt;&lt;div style=&quot;&quot;&gt;&lt;br&gt;&lt;/div&gt;" style="rounded=1;whiteSpace=wrap;html=1;align=left;arcSize=3;" vertex="1" parent="1">
          <mxGeometry x="270" y="980" width="310" height="150" as="geometry" />
        </mxCell>
        <mxCell id="q_IPMps0T10aTlea4-SQ-29" style="edgeStyle=orthogonalEdgeStyle;rounded=0;orthogonalLoop=1;jettySize=auto;html=1;exitX=0.25;exitY=1;exitDx=0;exitDy=0;entryX=0.75;entryY=1;entryDx=0;entryDy=0;dashed=1;" edge="1" parent="1" source="q_IPMps0T10aTlea4-SQ-25" target="q_IPMps0T10aTlea4-SQ-3">
          <mxGeometry relative="1" as="geometry" />
        </mxCell>
        <mxCell id="q_IPMps0T10aTlea4-SQ-30" value="Use to build" style="edgeLabel;html=1;align=center;verticalAlign=middle;resizable=0;points=[];" vertex="1" connectable="0" parent="q_IPMps0T10aTlea4-SQ-29">
          <mxGeometry x="0.333" y="2" relative="1" as="geometry">
            <mxPoint x="35" y="8" as="offset" />
          </mxGeometry>
        </mxCell>
        <mxCell id="q_IPMps0T10aTlea4-SQ-25" value="Pendulum dataset" style="rounded=1;whiteSpace=wrap;html=1;" vertex="1" parent="1">
          <mxGeometry x="340" y="730" width="100" height="70" as="geometry" />
        </mxCell>
        <mxCell id="q_IPMps0T10aTlea4-SQ-41" style="edgeStyle=orthogonalEdgeStyle;rounded=0;orthogonalLoop=1;jettySize=auto;html=1;entryX=1;entryY=0.5;entryDx=0;entryDy=0;exitX=1;exitY=0.5;exitDx=0;exitDy=0;" edge="1" parent="1" source="q_IPMps0T10aTlea4-SQ-37" target="q_IPMps0T10aTlea4-SQ-40">
          <mxGeometry relative="1" as="geometry">
            <Array as="points">
              <mxPoint x="610" y="1065" />
              <mxPoint x="610" y="1205" />
            </Array>
          </mxGeometry>
        </mxCell>
        <mxCell id="q_IPMps0T10aTlea4-SQ-43" style="edgeStyle=orthogonalEdgeStyle;rounded=0;orthogonalLoop=1;jettySize=auto;html=1;entryX=0.5;entryY=0;entryDx=0;entryDy=0;" edge="1" parent="1" source="q_IPMps0T10aTlea4-SQ-35" target="q_IPMps0T10aTlea4-SQ-40">
          <mxGeometry relative="1" as="geometry" />
        </mxCell>
        <mxCell id="q_IPMps0T10aTlea4-SQ-38" style="edgeStyle=orthogonalEdgeStyle;rounded=0;orthogonalLoop=1;jettySize=auto;html=1;entryX=0;entryY=0.5;entryDx=0;entryDy=0;" edge="1" parent="1" source="q_IPMps0T10aTlea4-SQ-36" target="q_IPMps0T10aTlea4-SQ-37">
          <mxGeometry relative="1" as="geometry" />
        </mxCell>
        <mxCell id="q_IPMps0T10aTlea4-SQ-36" value="Controller" style="rounded=1;whiteSpace=wrap;html=1;" vertex="1" parent="1">
          <mxGeometry x="310" y="1030" width="100" height="70" as="geometry" />
        </mxCell>
        <mxCell id="q_IPMps0T10aTlea4-SQ-37" value="Inverted Pendulum" style="rounded=1;whiteSpace=wrap;html=1;" vertex="1" parent="1">
          <mxGeometry x="450" y="1030" width="100" height="70" as="geometry" />
        </mxCell>
        <mxCell id="q_IPMps0T10aTlea4-SQ-42" style="edgeStyle=orthogonalEdgeStyle;rounded=0;orthogonalLoop=1;jettySize=auto;html=1;entryX=0;entryY=0.5;entryDx=0;entryDy=0;" edge="1" parent="1" source="q_IPMps0T10aTlea4-SQ-40" target="q_IPMps0T10aTlea4-SQ-35">
          <mxGeometry relative="1" as="geometry">
            <Array as="points">
              <mxPoint x="250" y="1205" />
              <mxPoint x="250" y="1055" />
            </Array>
          </mxGeometry>
        </mxCell>
        <mxCell id="q_IPMps0T10aTlea4-SQ-40" value="Machine Learning Model" style="rounded=1;whiteSpace=wrap;html=1;" vertex="1" parent="1">
          <mxGeometry x="375" y="1170" width="100" height="70" as="geometry" />
        </mxCell>
        <mxCell id="q_IPMps0T10aTlea4-SQ-54" style="edgeStyle=orthogonalEdgeStyle;rounded=0;orthogonalLoop=1;jettySize=auto;html=1;entryX=0;entryY=0.5;entryDx=0;entryDy=0;" edge="1" parent="1" source="q_IPMps0T10aTlea4-SQ-51" target="q_IPMps0T10aTlea4-SQ-4">
          <mxGeometry relative="1" as="geometry" />
        </mxCell>
        <mxCell id="q_IPMps0T10aTlea4-SQ-51" value="Result dataset" style="rounded=1;whiteSpace=wrap;html=1;" vertex="1" parent="1">
          <mxGeometry x="475" y="730" width="100" height="70" as="geometry" />
        </mxCell>
      </root>
    </mxGraphModel>
  </diagram>
</mxfile>
